<?xml version="1.0" encoding="utf-8"?>
<svg width="576" height="280" viewBox="0 0 576 280" fill="none" xmlns="http://www.w3.org/2000/svg">
  <defs/>
  <path d="M 504.19 33.412 L 515.25 33.412 L 515.25 46.937 L 526.846 33.412 L 541.543 33.412 L 528.506 46.913 L 542.129 69.203 L 528.506 69.203 L 520.962 54.481 L 515.25 60.463 L 515.25 69.203 L 504.19 69.203 Z" transform="matrix(0, 1, -1, 0, 578.264954, -479.0755)" style="fill: rgb(133, 0, 0);"/>
  <path d="M 500.158 104.922 Q 498.129 104.922 496.629 104.164 Q 495.128 103.407 494.299 102.007 Q 493.471 100.606 493.471 98.748 L 493.471 89.66 Q 493.471 87.774 494.299 86.387 Q 495.128 85.001 496.629 84.244 Q 498.129 83.487 500.158 83.487 Q 502.188 83.487 503.688 84.258 Q 505.189 85.03 506.003 86.399 Q 506.818 87.767 506.818 89.66 L 503.159 89.66 Q 503.159 88.231 502.373 87.474 Q 501.586 86.716 500.158 86.716 Q 498.729 86.716 497.943 87.475 Q 497.157 88.234 497.157 89.66 L 497.157 98.748 Q 497.157 100.163 497.943 100.928 Q 498.729 101.692 500.158 101.692 Q 501.586 101.692 502.373 100.928 Q 503.159 100.163 503.159 98.748 L 506.818 98.748 Q 506.818 100.606 506.003 101.992 Q 505.189 103.378 503.688 104.15 Q 502.188 104.922 500.158 104.922 Z M 510.755 104.636 L 510.755 83.772 L 514.442 83.772 L 514.442 88.917 L 514.357 91.918 L 515.357 91.918 L 514.357 92.775 Q 514.357 90.832 515.485 89.731 Q 516.614 88.631 518.558 88.631 Q 520.873 88.631 522.273 90.174 Q 523.674 91.718 523.674 94.347 L 523.674 104.636 L 519.987 104.636 L 519.987 94.719 Q 519.987 93.318 519.258 92.561 Q 518.529 91.803 517.215 91.803 Q 515.9 91.803 515.171 92.589 Q 514.442 93.375 514.442 94.804 L 514.442 104.636 Z M 534.357 104.922 Q 532.327 104.922 530.841 104.15 Q 529.355 103.378 528.54 101.978 Q 527.726 100.578 527.726 98.748 L 527.726 94.804 Q 527.726 92.947 528.54 91.561 Q 529.355 90.174 530.841 89.403 Q 532.327 88.631 534.357 88.631 Q 536.357 88.631 537.829 89.403 Q 539.301 90.174 540.115 91.561 Q 540.93 92.947 540.93 94.804 L 540.93 97.634 L 531.241 97.634 L 531.241 98.748 Q 531.241 100.349 532.042 101.192 Q 532.842 102.035 534.385 102.035 Q 535.557 102.035 536.271 101.621 Q 536.986 101.206 537.186 100.463 L 540.816 100.463 Q 540.387 102.464 538.629 103.693 Q 536.872 104.922 534.357 104.922 Z M 537.415 95.605 L 537.415 94.776 Q 537.415 93.175 536.643 92.318 Q 535.871 91.46 534.357 91.46 Q 532.813 91.46 532.027 92.332 Q 531.241 93.204 531.241 94.804 L 531.241 95.376 L 537.672 95.347 Z M 551.556 104.922 Q 549.555 104.922 548.04 104.164 Q 546.525 103.407 545.697 102.007 Q 544.868 100.606 544.868 98.748 L 544.868 94.804 Q 544.868 92.918 545.697 91.532 Q 546.525 90.146 548.04 89.388 Q 549.555 88.631 551.556 88.631 Q 554.528 88.631 556.314 90.16 Q 558.1 91.689 558.215 94.347 L 554.528 94.347 Q 554.442 93.147 553.671 92.489 Q 552.899 91.832 551.556 91.832 Q 550.127 91.832 549.341 92.604 Q 548.555 93.375 548.555 94.804 L 548.555 98.748 Q 548.555 100.149 549.341 100.935 Q 550.127 101.721 551.556 101.721 Q 552.899 101.721 553.671 101.063 Q 554.442 100.406 554.528 99.206 L 558.215 99.206 Q 558.1 101.864 556.314 103.393 Q 554.528 104.922 551.556 104.922 Z M 562.286 104.636 L 562.286 83.772 L 565.973 83.772 L 565.973 95.062 L 568.402 95.062 L 572.146 88.917 L 576.29 88.917 L 571.574 96.548 L 576.376 104.636 L 572.175 104.636 L 568.402 98.177 L 565.973 98.177 L 565.973 104.636 Z M 595.798 104.636 L 595.798 88.917 L 598.77 88.917 L 598.77 91.06 L 599.399 91.06 L 598.885 91.575 Q 598.885 90.232 599.642 89.431 Q 600.399 88.631 601.543 88.631 Q 602.8 88.631 603.5 89.66 Q 604.201 90.689 604.201 92.432 L 603.6 91.06 L 604.543 91.06 L 604.172 91.575 Q 604.172 90.232 604.915 89.431 Q 605.658 88.631 606.887 88.631 Q 608.345 88.631 609.202 89.717 Q 610.059 90.803 610.059 92.661 L 610.059 104.636 L 606.83 104.636 L 606.83 92.832 Q 606.83 92.061 606.501 91.632 Q 606.173 91.203 605.544 91.203 Q 604.915 91.203 604.572 91.632 Q 604.229 92.061 604.229 92.804 L 604.229 104.636 L 601.6 104.636 L 601.6 92.832 Q 601.6 92.061 601.257 91.632 Q 600.914 91.203 600.285 91.203 Q 599.656 91.203 599.328 91.632 Q 598.999 92.061 598.999 92.804 L 598.999 104.636 Z M 616.188 109.78 L 618.418 103.807 L 612.53 88.917 L 616.56 88.917 L 619.389 96.805 Q 619.618 97.462 619.861 98.405 Q 620.104 99.349 620.218 99.977 Q 620.361 99.349 620.604 98.405 Q 620.847 97.462 621.047 96.805 L 623.762 88.917 L 627.62 88.917 L 620.075 109.78 Z" transform="matrix(0.349891, 0, 0, 0.349891, 313.67688, 56.086292)" style="fill: rgb(217, 217, 217);"/>
  <path transform="matrix(0.349891, 0, 0, 0.349891, 313.67688, 56.086292)" style="fill: rgb(217, 217, 217);"/>
  <path d="M 502.473 133.216 Q 500.902 133.216 499.73 132.573 Q 498.558 131.93 497.901 130.758 Q 497.243 129.587 497.243 128.043 L 497.243 115.668 L 492.242 115.668 L 492.242 112.353 L 500.93 112.353 L 500.93 128.043 Q 500.93 128.901 501.43 129.401 Q 501.93 129.901 502.731 129.901 L 507.475 129.901 L 507.475 133.216 Z M 515.403 133.502 Q 512.985 133.502 511.584 132.223 Q 510.184 130.943 510.184 128.758 Q 510.184 126.443 511.741 125.171 Q 513.299 123.899 516.157 123.899 L 519.987 123.899 L 519.987 122.584 Q 519.987 121.47 519.258 120.841 Q 518.529 120.212 517.272 120.212 Q 516.139 120.212 515.376 120.727 Q 514.614 121.241 514.471 122.099 L 510.87 122.099 Q 511.127 119.841 512.899 118.526 Q 514.671 117.211 517.386 117.211 Q 520.273 117.211 521.973 118.655 Q 523.674 120.098 523.674 122.556 L 523.674 133.216 L 520.101 133.216 L 520.101 130.501 L 519.501 130.501 L 520.13 129.701 Q 520.13 131.455 518.837 132.479 Q 517.544 133.502 515.403 133.502 Z M 516.643 130.758 Q 518.109 130.758 519.048 130.001 Q 519.987 129.244 519.987 128.038 L 519.987 126.157 L 516.243 126.157 Q 515.157 126.157 514.499 126.771 Q 513.842 127.386 513.842 128.407 Q 513.842 129.5 514.584 130.129 Q 515.325 130.758 516.643 130.758 Z M 536.043 133.216 Q 533.785 133.216 532.499 131.944 Q 531.213 130.673 531.213 128.415 L 531.213 120.812 L 526.954 120.812 L 526.954 117.497 L 531.213 117.497 L 531.213 113.067 L 534.871 113.067 L 534.871 117.497 L 540.901 117.497 L 540.901 120.812 L 534.871 120.812 L 534.871 128.415 Q 534.871 129.901 536.329 129.901 L 540.616 129.901 L 540.616 133.216 Z M 551.498 133.502 Q 549.469 133.502 547.983 132.73 Q 546.497 131.959 545.682 130.558 Q 544.868 129.158 544.868 127.329 L 544.868 123.385 Q 544.868 121.527 545.682 120.141 Q 546.497 118.755 547.983 117.983 Q 549.469 117.211 551.498 117.211 Q 553.499 117.211 554.971 117.983 Q 556.443 118.755 557.257 120.141 Q 558.072 121.527 558.072 123.385 L 558.072 126.214 L 548.383 126.214 L 548.383 127.329 Q 548.383 128.929 549.183 129.772 Q 549.984 130.616 551.527 130.616 Q 552.699 130.616 553.413 130.201 Q 554.128 129.787 554.328 129.044 L 557.958 129.044 Q 557.529 131.044 555.771 132.273 Q 554.013 133.502 551.498 133.502 Z M 554.557 124.185 L 554.557 123.356 Q 554.557 121.756 553.785 120.898 Q 553.013 120.041 551.498 120.041 Q 549.955 120.041 549.169 120.912 Q 548.383 121.784 548.383 123.385 L 548.383 123.956 L 554.814 123.928 Z M 568.03 133.474 Q 566.201 133.474 564.844 132.902 Q 563.486 132.33 562.714 131.301 Q 561.943 130.273 561.886 128.901 L 565.573 128.901 Q 565.63 129.644 566.301 130.072 Q 566.973 130.501 568.03 130.501 L 569.259 130.501 Q 570.574 130.501 571.231 130.015 Q 571.889 129.529 571.889 128.672 Q 571.889 127.843 571.303 127.386 Q 570.717 126.929 569.517 126.757 L 567.573 126.5 Q 564.858 126.128 563.586 125.071 Q 562.314 124.013 562.314 121.899 Q 562.314 119.669 563.801 118.455 Q 565.287 117.24 568.202 117.24 L 569.288 117.24 Q 571.946 117.24 573.546 118.426 Q 575.147 119.612 575.233 121.613 L 571.574 121.613 Q 571.517 120.984 570.903 120.598 Q 570.288 120.212 569.288 120.212 L 568.202 120.212 Q 567.002 120.212 566.459 120.627 Q 565.915 121.041 565.915 121.899 Q 565.915 122.67 566.401 123.056 Q 566.887 123.442 567.945 123.585 L 569.974 123.871 Q 572.775 124.271 574.118 125.371 Q 575.461 126.471 575.461 128.615 Q 575.461 130.93 573.904 132.202 Q 572.346 133.474 569.259 133.474 Z M 587.487 133.216 Q 585.229 133.216 583.943 131.944 Q 582.657 130.673 582.657 128.415 L 582.657 120.812 L 578.399 120.812 L 578.399 117.497 L 582.657 117.497 L 582.657 113.067 L 586.316 113.067 L 586.316 117.497 L 592.346 117.497 L 592.346 120.812 L 586.316 120.812 L 586.316 128.415 Q 586.316 129.901 587.773 129.901 L 592.06 129.901 L 592.06 133.216 Z M 613.645 138.361 L 613.645 117.497 L 617.246 117.497 L 617.246 120.498 L 618.075 120.498 L 617.246 121.355 Q 617.246 119.412 618.375 118.312 Q 619.504 117.211 621.447 117.211 Q 623.819 117.211 625.248 118.84 Q 626.677 120.469 626.677 123.242 L 626.677 127.472 Q 626.677 129.301 626.034 130.658 Q 625.391 132.016 624.219 132.759 Q 623.048 133.502 621.447 133.502 Q 619.532 133.502 618.389 132.402 Q 617.246 131.301 617.246 129.358 L 618.075 130.215 L 617.217 130.215 L 617.331 133.959 L 617.331 138.361 Z M 620.161 130.33 Q 621.504 130.33 622.247 129.544 Q 622.99 128.758 622.99 127.329 L 622.99 123.385 Q 622.99 121.927 622.247 121.155 Q 621.504 120.384 620.161 120.384 Q 618.846 120.384 618.089 121.184 Q 617.331 121.984 617.331 123.385 L 617.331 127.329 Q 617.331 128.729 618.089 129.529 Q 618.846 130.33 620.161 130.33 Z M 637.217 133.474 Q 635.188 133.474 633.716 132.716 Q 632.244 131.959 631.43 130.558 Q 630.615 129.158 630.615 127.3 L 630.615 123.413 Q 630.615 121.527 631.43 120.141 Q 632.244 118.755 633.716 117.997 Q 635.188 117.24 637.217 117.24 Q 639.246 117.24 640.718 117.997 Q 642.19 118.755 643.005 120.141 Q 643.819 121.527 643.819 123.413 L 643.819 127.3 Q 643.819 129.158 643.005 130.558 Q 642.19 131.959 640.718 132.716 Q 639.246 133.474 637.217 133.474 Z M 637.217 130.273 Q 638.618 130.273 639.375 129.501 Q 640.132 128.729 640.132 127.3 L 640.132 123.413 Q 640.132 121.956 639.375 121.198 Q 638.618 120.441 637.217 120.441 Q 635.845 120.441 635.074 121.198 Q 634.302 121.956 634.302 123.413 L 634.302 127.3 Q 634.302 128.729 635.074 129.501 Q 635.845 130.273 637.217 130.273 Z M 653.759 133.474 Q 651.93 133.474 650.572 132.902 Q 649.215 132.33 648.443 131.301 Q 647.671 130.273 647.614 128.901 L 651.301 128.901 Q 651.358 129.644 652.03 130.072 Q 652.701 130.501 653.759 130.501 L 654.988 130.501 Q 656.303 130.501 656.96 130.015 Q 657.617 129.529 657.617 128.672 Q 657.617 127.843 657.031 127.386 Q 656.445 126.929 655.245 126.757 L 653.302 126.5 Q 650.586 126.128 649.315 125.071 Q 648.043 124.013 648.043 121.899 Q 648.043 119.669 649.529 118.455 Q 651.015 117.24 653.93 117.24 L 655.016 117.24 Q 657.674 117.24 659.275 118.426 Q 660.875 119.612 660.961 121.613 L 657.303 121.613 Q 657.246 120.984 656.631 120.598 Q 656.017 120.212 655.016 120.212 L 653.93 120.212 Q 652.73 120.212 652.187 120.627 Q 651.644 121.041 651.644 121.899 Q 651.644 122.67 652.13 123.056 Q 652.616 123.442 653.673 123.585 L 655.702 123.871 Q 658.503 124.271 659.846 125.371 Q 661.19 126.471 661.19 128.615 Q 661.19 130.93 659.632 132.202 Q 658.075 133.474 654.988 133.474 Z M 673.235 133.216 Q 670.977 133.216 669.691 131.944 Q 668.405 130.673 668.405 128.415 L 668.405 120.812 L 664.146 120.812 L 664.146 117.497 L 668.405 117.497 L 668.405 113.067 L 672.063 113.067 L 672.063 117.497 L 678.093 117.497 L 678.093 120.812 L 672.063 120.812 L 672.063 128.415 Q 672.063 129.901 673.52 129.901 L 677.807 129.901 L 677.807 133.216 Z" transform="matrix(0.349891, 0, 0, 0.349891, 313.67688, 56.086292)" style="fill: rgb(217, 217, 217);"/>
  <path transform="matrix(0.349891, 0, 0, 0.349891, 313.67688, 56.086292)" style="fill: rgb(217, 217, 217);"/>
</svg>