<?xml version="1.0" encoding="utf-8"?>
<svg width="66" height="49" viewBox="0 0 66 49" fill="none" xmlns="http://www.w3.org/2000/svg">
  <defs/>
  <text style="font-size: 36; font-family: Roboto; white-space: pre;" x="-186.543" y="19.661">output-onlinepngtools (2).png</text>
  <text style="font-size: 36; font-family: Roboto; white-space: pre;" x="-183.366" y="12.87">output-onlinepngtools (2).png</text>
  <text style="font-size: 36; font-family: Roboto; white-space: pre;" x="-182.557" y="34.119">output-onlinepngtools (2).png</text>
  <title>cloud_files</title>
  <path d="M 9.136 30.434 C 9.129 30.427 9.123 30.414 9.12 30.403 C 4.787 12.508 21.452 -3.366 39.115 1.829 C 40.007 2.092 40.882 2.405 41.739 2.77 C 41.792 2.792 41.802 2.865 41.755 2.901 C 41.733 2.918 41.704 2.921 41.679 2.91 C 33.33 -0.64 23.858 0.807 16.956 6.685 C 10.099 12.528 7.151 21.602 9.268 30.367 C 9.282 30.425 9.229 30.475 9.173 30.459 C 9.159 30.454 9.146 30.446 9.136 30.434 Z" fill="#e6e6e6" style=""/>
  <path d="M 23.079 46.801 C 23.041 46.758 23.066 46.689 23.123 46.677 C 23.138 46.674 23.153 46.675 23.166 46.682 C 31.483 50.164 40.91 48.699 47.769 42.856 C 54.734 36.923 57.694 27.802 55.489 19.052 C 55.474 18.994 55.527 18.943 55.583 18.959 C 55.609 18.967 55.63 18.988 55.637 19.014 C 56.707 23.266 56.571 27.732 55.245 31.91 C 53.873 36.217 51.316 40.05 47.867 42.972 C 41.001 48.825 31.427 50.313 23.107 46.823 C 23.097 46.818 23.087 46.811 23.079 46.801 Z" fill="#e6e6e6" style=""/>
  <path d="M 21.317 48.155 C 21.287 48.123 21.293 48.076 21.324 48.049 L 57.356 17.354 C 57.4 17.318 57.47 17.342 57.48 17.399 C 57.486 17.426 57.475 17.454 57.454 17.471 L 21.424 48.165 C 21.391 48.191 21.343 48.189 21.317 48.155 Z" fill="#e6e6e6" style=""/>
  <path d="M 7.52 31.96 C 7.492 31.927 7.496 31.879 7.528 31.853 L 43.558 1.159 C 43.604 1.121 43.673 1.146 43.683 1.203 C 43.688 1.229 43.678 1.259 43.657 1.275 L 7.629 31.968 C 7.595 31.996 7.547 31.993 7.52 31.96 Z" fill="#e6e6e6" style=""/>
  <path d="M 21.317 48.155 C 21.287 48.123 21.293 48.076 21.324 48.049 L 57.356 17.354 C 57.4 17.318 57.47 17.342 57.48 17.399 C 57.486 17.426 57.475 17.454 57.454 17.471 L 21.424 48.165 C 21.391 48.191 21.343 48.189 21.317 48.155 Z" fill="#e6e6e6" style=""/>
  <path d="M 49.627 13.51 L 35.681 13.51 L 35.681 13.437 C 35.681 13.318 35.585 13.222 35.466 13.222 L 29.572 13.222 C 29.454 13.222 29.359 13.318 29.359 13.437 L 29.359 13.51 L 15.356 13.51 C 14.834 13.51 14.413 13.932 14.413 14.453 L 14.413 33.547 C 14.413 34.069 14.834 34.492 15.356 34.492 L 49.627 34.492 C 50.148 34.492 50.569 34.069 50.569 33.547 L 50.569 14.453 C 50.569 13.932 50.148 13.51 49.627 13.51 Z" fill="#3f3d56" style=""/>
  <path d="M 16.107 15.519 C 16.057 15.519 16.018 15.557 16.018 15.606 L 16.018 33.718 C 16.018 33.766 16.057 33.806 16.107 33.806 L 48.876 33.806 C 48.924 33.806 48.965 33.766 48.965 33.718 L 48.965 15.606 C 48.965 15.557 48.924 15.519 48.876 15.519 L 16.107 15.519 Z" fill="#731111" style=""/>
  <circle cx="32.462" cy="14.314" r="0.345" fill="#731111" style=""/>
  <path d="M 51.197 33.204 L 47.916 33.204 L 47.916 32.865 C 47.916 32.847 47.895 32.832 47.869 32.832 L 46.743 32.832 C 46.717 32.832 46.696 32.847 46.696 32.865 L 46.696 33.204 L 45.993 33.204 L 45.993 32.865 C 45.993 32.847 45.972 32.832 45.947 32.832 L 44.822 32.832 C 44.796 32.832 44.775 32.847 44.775 32.865 L 44.775 33.204 L 44.071 33.204 L 44.071 32.865 C 44.071 32.847 44.05 32.832 44.024 32.832 L 42.9 32.832 C 42.873 32.832 42.852 32.847 42.852 32.865 L 42.852 33.204 L 42.149 33.204 L 42.149 32.865 C 42.149 32.847 42.128 32.832 42.103 32.832 L 40.977 32.832 C 40.951 32.832 40.931 32.847 40.931 32.865 L 40.931 33.204 L 40.228 33.204 L 40.228 32.865 C 40.228 32.847 40.207 32.832 40.181 32.832 L 39.056 32.832 C 39.028 32.832 39.008 32.847 39.008 32.865 L 39.008 33.204 L 38.305 33.204 L 38.305 32.865 C 38.305 32.847 38.284 32.832 38.259 32.832 L 37.132 32.832 C 37.106 32.832 37.085 32.847 37.085 32.865 L 37.085 33.204 L 36.382 33.204 L 36.382 32.865 C 36.382 32.847 36.361 32.832 36.336 32.832 L 27.521 32.832 C 27.496 32.832 27.474 32.847 27.474 32.865 L 27.474 33.204 L 26.771 33.204 L 26.771 32.865 C 26.771 32.847 26.751 32.832 26.724 32.832 L 25.6 32.832 C 25.573 32.832 25.553 32.847 25.553 32.865 L 25.553 33.204 L 24.849 33.204 L 24.849 32.865 C 24.849 32.847 24.828 32.832 24.802 32.832 L 23.677 32.832 C 23.651 32.832 23.63 32.847 23.63 32.865 L 23.63 33.204 L 22.927 33.204 L 22.927 32.865 C 22.927 32.847 22.906 32.832 22.881 32.832 L 21.754 32.832 C 21.73 32.832 21.709 32.847 21.709 32.865 L 21.709 33.204 L 21.005 33.204 L 21.005 32.865 C 21.005 32.847 20.984 32.832 20.958 32.832 L 19.832 32.832 C 19.806 32.832 19.785 32.847 19.785 32.865 L 19.785 33.204 L 19.082 33.204 L 19.082 32.865 C 19.082 32.847 19.061 32.832 19.035 32.832 L 17.91 32.832 C 17.885 32.832 17.864 32.847 17.864 32.865 L 17.864 33.204 L 17.16 33.204 L 17.16 32.865 C 17.16 32.847 17.139 32.832 17.113 32.832 L 15.988 32.832 C 15.962 32.832 15.941 32.847 15.941 32.865 L 15.941 33.204 L 13.786 33.204 C 13.163 33.204 12.659 33.566 12.659 34.013 L 12.659 34.379 C 12.659 34.826 13.163 35.187 13.786 35.187 L 51.197 35.187 C 51.819 35.187 52.324 34.826 52.324 34.379 L 52.324 34.013 C 52.324 33.566 51.819 33.204 51.197 33.204 Z" fill="#3f3d56" style=""/>
  <path d="M 28.675 23.137 L 18.991 23.137 C 18.93 23.137 18.894 23.075 18.924 23.023 C 18.936 22.999 18.961 22.986 18.991 22.986 L 28.675 22.986 C 28.736 22.986 28.772 23.048 28.742 23.1 C 28.728 23.123 28.704 23.137 28.675 23.137 Z" fill="#f2f2f2" style=""/>
  <path d="M 28.675 24.815 L 18.991 24.815 C 18.93 24.815 18.894 24.752 18.924 24.701 C 18.936 24.677 18.961 24.664 18.991 24.664 L 28.675 24.664 C 28.736 24.664 28.772 24.726 28.742 24.777 C 28.728 24.8 28.704 24.815 28.675 24.815 Z" fill="#f2f2f2" style=""/>
  <path d="M 28.675 26.494 L 18.991 26.494 C 18.93 26.494 18.894 26.43 18.924 26.379 C 18.936 26.355 18.961 26.341 18.991 26.341 L 28.675 26.341 C 28.736 26.341 28.772 26.404 28.742 26.455 C 28.728 26.478 28.704 26.494 28.675 26.494 Z" fill="#f2f2f2" style=""/>
  <rect x="32.91" y="18.752" width="12.433" height="11.974" rx="3.36" fill="#fff" style=""/>
  <polygon points="38.994 25.042 38.994 23.786 38.318 23.786 38.318 25.042 37.778 25.042 38.217 25.801 38.654 26.561 39.093 25.801 39.532 25.042 38.994 25.042" fill="#fff" style=""/>
  <g transform="matrix(0.011962, 0, 0, 0.011962, 38.515675, 23.318523)" style="">
    <defs id="defs13"/>
    <path style="display: inline; fill: none; fill-rule: evenodd; stroke-width: 1px; stroke-linecap: butt; stroke-linejoin: miter; stroke-opacity: 1; stroke: rgb(255, 255, 255);" d="m -264.56476,227.74074 v 0" id="path2054"/>
    <path style="display: inline; fill-opacity: 1; stroke-width: 3; stroke-linecap: butt; stroke-linejoin: miter; stroke-miterlimit: 4; stroke-dasharray: none; stroke-opacity: 1; stroke: rgb(255, 255, 255); fill: rgb(115, 17, 17); transform-box: fill-box; transform-origin: 50% 50%;" d="M -130.103 -43.976 L -142.78 -60.389 L -200.093 9.111 C -188.687 28.209 -140.711 113.146 -146.267 164.391 C -152.531 222.164 -153.499 276.518 -200.093 319.673 C -93.836 337.386 -37.711 401.291 8.58 383.86 L 4.443 364.048 L 43.255 352.244 L 82.067 364.048 L 78.115 383.86 C 111.476 407.369 208.586 325.169 286.127 319.672 C 239.986 276.292 235.793 220.395 232.301 164.391 C 228.694 106.556 271.77 42.377 286.127 9.111 L 228.814 -60.389 L 216.137 -43.976 C 178.794 -108.616 146.68 -124.361 43.017 -165.08 C 12.136 -147.95 -84.205 -134.504 -130.103 -43.976 Z" id="path2985" class="UnoptimicedTransforms" transform="matrix(-1, 0, 0, -1, 0.00008, -0.000219)"/>
  </g>
</svg>